<svg aria-hidden="true" style="position:absolute;width:0;height:0;overflow:hidden" xmlns="http://www.w3.org/2000/svg">
  <defs>
    <symbol id="icon-check-1" viewBox="0 0 34 32">
      <path fill="#2196f3" style="fill:var(--color1, #2196f3)" d="M4.267 0h25.6a4.267 4.267 0 0 1 4.267 4.267v23.467a4.267 4.267 0 0 1-4.267 4.267h-25.6A4.267 4.267 0 0 1 0 27.734V4.267A4.267 4.267 0 0 1 4.267 0z"/>
      <path fill="#fff" style="fill:var(--color2, #fff);stroke:var(--color2, #fff)" stroke="#fff" stroke-width=".427" d="m8.442 16.537-.147-.14-2.205 2.088 7.767 7.41 16.318-15.567-2.19-2.089-14.128 13.465-5.416-5.167z"/>
    </symbol>
    <symbol id="icon-check" viewBox="0 0 32 32">
  <path d="M28.444 4.333v23.333h-24.889v-23.333h24.889zM28.444 1h-24.889c-1.956 0-3.556 1.5-3.556 3.333v23.333c0 1.833 1.6 3.333 3.556 3.333h24.889c1.956 0 3.556-1.5 3.556-3.333v-23.333c0-1.833-1.6-3.333-3.556-3.333z"></path>
  </symbol>
  </defs>
</svg>
